<?xml version="1.0" standalone="no"?><!DOCTYPE svg PUBLIC "-//W3C//DTD SVG 1.1//EN" "http://www.w3.org/Graphics/SVG/1.1/DTD/svg11.dtd"><svg t="1725791866061" class="icon" viewBox="0 0 1024 1024" version="1.1" xmlns="http://www.w3.org/2000/svg" p-id="5413" width="64" height="64" xmlns:xlink="http://www.w3.org/1999/xlink"><path d="M512 1024C230.4 1024 0 793.6 0 512S230.4 0 512 0s512 230.4 512 512c0 87.771429-21.942857 175.542857-65.828571 252.342857-10.971429 18.285714-32.914286 25.6-51.2 14.628572-18.285714-10.971429-25.6-32.914286-14.628572-51.2 36.571429-65.828571 54.857143-138.971429 54.857143-215.771429 0-241.371429-197.485714-438.857143-438.857143-438.857143S73.142857 270.628571 73.142857 512s197.485714 438.857143 438.857143 438.857143c73.142857 0 142.628571-18.285714 204.8-51.2 18.285714-10.971429 40.228571-3.657143 51.2 14.628571 10.971429 18.285714 3.657143 40.228571-14.628571 51.2-73.142857 36.571429-157.257143 58.514286-241.371429 58.514286" fill="#037FFF" p-id="5414"></path><path d="M687.542857 683.885714H336.457143c-3.657143 14.628571-14.628571 25.6-25.6 29.257143l3.657143 32.914286c3.657143 18.285714 14.628571 32.914286 32.914285 32.914286h329.142858c14.628571 0 29.257143-14.628571 32.914285-32.914286l3.657143-32.914286c-14.628571 0-21.942857-14.628571-25.6-29.257143" fill="#6BB6FF" p-id="5415"></path><path d="M789.942857 362.057143c0-25.6-21.942857-47.542857-47.542857-47.542857-25.6 0-47.542857 21.942857-47.542857 47.542857 0 18.285714 10.971429 36.571429 29.257143 43.885714-14.628571 51.2-47.542857 73.142857-95.085715 73.142857s-87.771429-73.142857-91.428571-146.285714c14.628571-10.971429 25.6-25.6 25.6-47.542857 0-29.257143-25.6-54.857143-54.857143-54.857143s-54.857143 25.6-54.857143 54.857143c0 18.285714 10.971429 36.571429 25.6 47.542857-3.657143 73.142857-43.885714 146.285714-91.428571 146.285714s-80.457143-18.285714-95.085714-73.142857c18.285714-7.314286 29.257143-21.942857 29.257142-43.885714 0-25.6-21.942857-47.542857-47.542857-47.542857-25.6 0-47.542857 21.942857-47.542857 47.542857 0 18.285714 10.971429 36.571429 29.257143 43.885714l25.6 190.171429c0 7.314286 3.657143 14.628571 3.657143 21.942857H292.571429c18.285714 0 32.914286 18.285714 36.571428 40.228571H672.914286c3.657143-21.942857 18.285714-40.228571 36.571428-40.228571h7.314286c3.657143-7.314286 3.657143-14.628571 3.657143-21.942857l25.6-190.171429c32.914286-7.314286 43.885714-25.6 43.885714-43.885714" fill="#3399FF" p-id="5416"></path></svg>