<?xml version="1.0" standalone="no"?><!DOCTYPE svg PUBLIC "-//W3C//DTD SVG 1.1//EN" "http://www.w3.org/Graphics/SVG/1.1/DTD/svg11.dtd"><svg t="1725869077458" class="icon" viewBox="0 0 1024 1024" version="1.1" xmlns="http://www.w3.org/2000/svg" p-id="6535" width="48" height="48" xmlns:xlink="http://www.w3.org/1999/xlink"><path d="M512 619.789474c-59.284211 0-107.789474-48.505263-107.789474-107.789474s48.505263-107.789474 107.789474-107.789474 107.789474 48.505263 107.789474 107.789474-48.505263 107.789474-107.789474 107.789474z m0-80.842106c16.168421 0 26.947368-10.778947 26.947368-26.947368s-10.778947-26.947368-26.947368-26.947368-26.947368 10.778947-26.947368 26.947368 10.778947 26.947368 26.947368 26.947368z" fill="#515151" p-id="6536"></path><path d="M509.305263 781.473684C231.747368 781.473684 80.842105 512 80.842105 512S234.442105 242.526316 512 242.526316c280.252632 0 431.157895 269.473684 431.157895 269.473684s-153.6 266.778947-433.852632 269.473684c2.694737 0 0 0 0 0z m2.694737-80.842105c167.073684 0 282.947368-123.957895 334.147368-188.631579-48.505263-64.673684-164.378947-188.631579-334.147368-188.631579-167.073684 0-282.947368 123.957895-334.147368 188.631579 48.505263 64.673684 164.378947 188.631579 334.147368 188.631579z" fill="#515151" p-id="6537"></path></svg>